<svg width="16" height="16" viewBox="0 0 16 16" fill="none" xmlns="http://www.w3.org/2000/svg">
<path d="M7.33268 5.33366C7.33268 4.96547 7.63116 4.66699 7.99935 4.66699C8.36754 4.66699 8.66602 4.96547 8.66602 5.33366V7.33366H10.666C11.0342 7.33366 11.3327 7.63214 11.3327 8.00033C11.3327 8.36852 11.0342 8.66699 10.666 8.66699H8.66602V10.667C8.66602 11.0352 8.36754 11.3337 7.99935 11.3337C7.63116 11.3337 7.33268 11.0352 7.33268 10.667V8.66699H5.33268C4.96449 8.66699 4.66602 8.36851 4.66602 8.00033C4.66602 7.63213 4.96449 7.33366 5.33268 7.33366H7.33268V5.33366Z" fill="#0F0F0F"/>
<path fill-rule="evenodd" clip-rule="evenodd" d="M15.3327 8.00033C15.3327 12.0504 12.0494 15.3337 7.99935 15.3337C3.94926 15.3337 0.666016 12.0504 0.666016 8.00033C0.666016 3.95024 3.94926 0.666992 7.99935 0.666992C12.0494 0.666992 15.3327 3.95024 15.3327 8.00033ZM2.0039 8.00033C2.0039 11.3115 4.68815 13.9958 7.99935 13.9958C11.3105 13.9958 13.9948 11.3115 13.9948 8.00033C13.9948 4.68913 11.3105 2.00488 7.99935 2.00488C4.68815 2.00488 2.0039 4.68913 2.0039 8.00033Z" fill="#0F0F0F"/>
</svg>
