<svg width="16" height="16" viewBox="0 0 16 16" fill="none" xmlns="http://www.w3.org/2000/svg">
<path d="M11.3327 8.00033C11.3327 7.63214 11.0342 7.33366 10.666 7.33366H5.33268C4.96449 7.33366 4.66602 7.63214 4.66602 8.00033C4.66602 8.36852 4.96449 8.66699 5.33268 8.66699H10.666C11.0342 8.66699 11.3327 8.36852 11.3327 8.00033Z" fill="#0F0F0F"/>
<path fill-rule="evenodd" clip-rule="evenodd" d="M7.99935 15.3337C12.0494 15.3337 15.3327 12.0504 15.3327 8.00033C15.3327 3.95024 12.0494 0.666992 7.99935 0.666992C3.94926 0.666992 0.666016 3.95024 0.666016 8.00033C0.666016 12.0504 3.94926 15.3337 7.99935 15.3337ZM7.99935 13.9958C4.68816 13.9958 2.0039 11.3115 2.0039 8.00033C2.0039 4.68913 4.68816 2.00488 7.99935 2.00488C11.3105 2.00488 13.9948 4.68913 13.9948 8.00033C13.9948 11.3115 11.3105 13.9958 7.99935 13.9958Z" fill="#0F0F0F"/>
</svg>
