<svg width="16" height="11" viewBox="0 0 16 11" fill="none" xmlns="http://www.w3.org/2000/svg">
<path fill-rule="evenodd" clip-rule="evenodd" d="M7.99662 7.83398C9.28529 7.83398 10.33 6.78932 10.33 5.50065C10.33 4.21199 9.28529 3.16732 7.99662 3.16732C6.70796 3.16732 5.66329 4.21199 5.66329 5.50065C5.66329 6.78932 6.70796 7.83398 7.99662 7.83398ZM7.99662 6.49691C7.4464 6.49691 7.00037 6.05087 7.00037 5.50065C7.00037 4.95043 7.4464 4.50439 7.99662 4.50439C8.54684 4.50439 8.99288 4.95043 8.99288 5.50065C8.99288 6.05087 8.54684 6.49691 7.99662 6.49691Z" fill="black"/>
<path fill-rule="evenodd" clip-rule="evenodd" d="M8.00036 0.833984C4.79289 0.833984 2.6115 2.57335 1.4599 3.82051C0.571961 4.78212 0.571961 6.21918 1.4599 7.1808C2.6115 8.42795 4.79289 10.1673 8.00036 10.1673C11.2078 10.1673 13.3892 8.42795 14.5408 7.1808C15.4288 6.21918 15.4288 4.78212 14.5408 3.82051C13.3892 2.57335 11.2078 0.833984 8.00036 0.833984ZM2.43949 4.72504C3.45925 3.62067 5.31163 2.16732 8.00036 2.16732C10.6891 2.16732 12.5415 3.62067 13.5612 4.72504C13.9775 5.17586 13.9775 5.82544 13.5612 6.27626C12.5415 7.38064 10.6891 8.83398 8.00036 8.83398C5.31163 8.83398 3.45925 7.38064 2.43949 6.27626C2.02321 5.82544 2.02321 5.17586 2.43949 4.72504Z" fill="black"/>
</svg>
